<svg xmlns="http://www.w3.org/2000/svg" width="266.672" height="82.244" viewBox="0 0 266.672 82.244"><style>@keyframes traingle_effect{50%{fill:#bd1e2d}}@keyframes not_traingle_effect{50%{fill:#fff}}path:not(.traingle){animation:not_traingle_effect 7s cubic-bezier(.165,.84,.44,1) infinite}.text path,.traingle{animation:traingle_effect 7s cubic-bezier(.165,.84,.44,1) infinite}</style><path d="m97.858.141 7.921 5.139c1.575 1.022 3.167 2.019 4.712 3.086a1 1 0 0 0 1.3.013c4.315-2.674 8.647-5.319 12.966-7.985a2.007 2.007 0 0 1 1.2-.349 27.4 27.4 0 0 1 18.919 8.38 28.612 28.612 0 0 1 4.12 5.443.958.958 0 0 1-.056 1.224q-7.733 10.884-15.418 21.8a1.041 1.041 0 0 1-.946.563c-5.157-.022-10.315-.014-15.472-.016a3.11 3.11 0 0 1-.364-.058c1.314-1.82 2.584-3.583 3.858-5.343q5.741-7.939 11.5-15.866c.4-.554.432-.785-.219-1.141-8.185-4.473-18.8.635-20.514 9.8a14.214 14.214 0 0 0 10.952 16.594 12.218 12.218 0 0 0 2.565.283c7.813-.015 15.627 0 23.44-.025.791 0 1.091.125 1.077 1.021-.059 3.828-.039 7.656-.011 11.484 0 .646-.093.893-.834.89-7.874-.033-15.75 0-23.624-.033a26.271 26.271 0 0 1-16.388-5.769 27.31 27.31 0 0 1-10.717-22.108q.011-13.244 0-26.489c.002-.118.014-.241.033-.538ZM265.747 55.062l-6.515-4.233c-2.038-1.324-4.089-2.631-6.108-3.986a1.09 1.09 0 0 0-1.4-.025c-3.915 2.441-7.888 4.79-11.766 7.285a5.625 5.625 0 0 1-3.818.933 27.406 27.406 0 0 1-21.657-13.869.762.762 0 0 1 .046-.972q7.768-10.97 15.509-21.959a1.09 1.09 0 0 1 1-.5c4.971.015 9.942.008 14.913.015.226 0 .544-.14.663.137s-.191.422-.327.61q-7.383 10.227-14.792 20.436c-.483.662-.4.907.286 1.265a14.175 14.175 0 1 0 8.7-26.6 16.62 16.62 0 0 0-2.674-.172q-11.347-.018-22.695.01c-.732 0-.915-.193-.908-.914q.054-5.833 0-11.667c0-.635.141-.827.805-.825 7.75.025 15.5-.037 23.25.028a27.765 27.765 0 0 1 26.876 21.9 26.555 26.555 0 0 1 .6 5.589v26.761ZM51.534 55.029l-8.152-5.3c-1.471-.956-2.96-1.886-4.4-2.886a1.134 1.134 0 0 0-1.47.009c-3.89 2.423-7.834 4.761-11.7 7.227a5.548 5.548 0 0 1-3.719.961C12.477 54.055 5.232 49.375.28 41.096a.7.7 0 0 1 .083-.891q7.79-11.014 15.567-22.037a.915.915 0 0 1 .838-.439q7.781.016 15.563.016a1.323 1.323 0 0 1 .273.091c-1.2 1.663-2.377 3.3-3.56 4.939q-5.88 8.123-11.776 16.233c-.424.58-.356.79.266 1.124a14.17 14.17 0 1 0 8.791-26.549 16.811 16.811 0 0 0-2.676-.17q-11.348-.019-22.7.013c-.778 0-.964-.2-.955-.964C.036 8.573.025 4.683 0 .794 0 .206.131.014.756.016c7.843.022 15.688-.081 23.529.038a27.558 27.558 0 0 1 27.277 27.94q-.014 13.243 0 26.486c.002.127-.011.249-.028.549ZM210.151.061v.981q0 26.527.022 53.056c0 .9-.219 1.117-1.109 1.1q-5.093-.086-10.188 0c-.871.013-1.137-.177-1.133-1.1q.05-12.778 0-25.555a14.959 14.959 0 0 0-29.612-2.494 17.206 17.206 0 0 0-.236 3.5c0 8.21-.012 16.42.021 24.629 0 .811-.185 1.031-1.012 1.021a712.376 712.376 0 0 0-12.318-.008c-.632 0-.846-.158-.842-.819.042-9.2-.111-18.4.145-27.589a25.866 25.866 0 0 1 5.636-14.94 29.015 29.015 0 0 1 18.56-11.4c1.147-.209 2.326-.239 3.487-.381a3.244 3.244 0 0 1 2.175.5c4 2.416 8.033 4.776 12.04 7.18a1.166 1.166 0 0 0 1.4 0c3.951-2.378 7.925-4.719 11.893-7.069.305-.185.624-.359 1.071-.612ZM71 .125v8.073c.382.168.542-.093.728-.212a28.97 28.97 0 0 1 12.382-4.1c2.765-.325 5.539-.326 8.308-.485.636-.037.841.14.836.806-.03 4.29-.023 8.58-.006 12.871 0 .588-.042.718-.747.6-6.926-1.125-13.222.276-18.519 5.052a9.217 9.217 0 0 0-3 7.183c.029 8.088 0 16.174.028 24.261 0 .735-.2.91-.913.9q-6.576-.051-13.153 0c-.71.006-.86-.2-.859-.878q.031-17.78 0-35.559a2.358 2.358 0 0 1 .711-1.618q6.9-8.221 13.785-16.457c.086-.101.194-.199.419-.437Z" fill="#bd1e2d"/><path class="traingle" d="M99.851.104h23.219c-1.459.9-2.743 1.7-4.031 2.5-2.409 1.483-4.828 2.952-7.227 4.453a1.022 1.022 0 0 1-1.3-.012c-3.465-2.292-6.953-4.536-10.661-6.941ZM240.565 55.001l8.837-5.434c.707-.436 1.444-.829 2.113-1.317a1.3 1.3 0 0 1 1.727-.012c3.1 2.069 6.234 4.077 9.355 6.109.272.177.535.368.954.655ZM49.074 54.994H26.623c.006-.334.361-.344.557-.466 3.477-2.153 6.966-4.286 10.449-6.43.346-.212.612-.4 1.063-.1 3.362 2.222 6.749 4.407 10.126 6.606.116.079.282.139.256.39ZM185.096.083h22.573c-.1.321-.429.371-.657.507q-4.992 2.984-10 5.941c-.291.173-.52.331-.9.1-3.592-2.154-7.195-4.281-11.016-6.548Z" fill="#fff"/><g class="text"><path d="M167.941 71.341c-.734-.054-.548.541-.749.849-1.853-1.374-3.776-1.3-5.22.147a4.15 4.15 0 0 0-.309 5.258c1.3 1.676 3.2 1.83 5.567.4a2.23 2.23 0 0 1-1.753 2.672 2.727 2.727 0 0 1-2.425-.541c-.61-.432-.934.239-1.259.517-.378.324.154.5.347.649a4.065 4.065 0 0 0 4.424.51 3.886 3.886 0 0 0 2.216-3.753c.039-1.946-.023-3.892.023-5.83.026-.7-.182-.824-.862-.878Zm-3.027 6.27a2.484 2.484 0 0 1 .069-4.965 2.486 2.486 0 0 1-.069 4.965ZM266.314 71.395c-.378.039-.973-.286-1.1.278-.154.718-.378.317-.641.147a3.655 3.655 0 0 0-4.239.1 3.965 3.965 0 0 0-1.459 4.185 3.6 3.6 0 0 0 3.011 2.865 3.8 3.8 0 0 0 3.228-1.066c.108 1.66-.548 2.548-1.953 2.818a2.505 2.505 0 0 1-2.154-.556c-.7-.564-1 .224-1.336.5s.185.486.386.633a3.984 3.984 0 0 0 4.339.525 3.646 3.646 0 0 0 2.224-3.452c.046-2.131.039-4.255.039-6.386.003-.251.103-.637-.345-.591Zm-3.49 6.216a2.486 2.486 0 1 1 2.355-2.44 2.389 2.389 0 0 1-2.355 2.44ZM118.3 71.372c-.579 0-1.135-.069-.981.834-2.008-1.4-4.023-1.3-5.366.216a4.262 4.262 0 0 0-.008 5.428c1.289 1.452 3.274 1.506 5.3.147a2.074 2.074 0 0 1-.911 2.371 2.541 2.541 0 0 1-3.019-.147c-.764-.641-1.1.123-1.4.425-.371.371.232.61.479.772a4.006 4.006 0 0 0 4.355.332 3.74 3.74 0 0 0 2.077-3.552c-.008-1.969.008-3.946-.008-5.915-.001-.363.254-.919-.518-.911Zm-3.259 6.239a2.489 2.489 0 1 1 2.309-2.479 2.338 2.338 0 0 1-2.308 2.479ZM133.247 74.056c0-1.449.017-2.9-.009-4.345-.009-.476.124-.641.619-.635 2.127.024 4.255.04 6.382-.005.8-.018.582.489.619.91.042.49-.005.807-.661.784-1.479-.049-2.96.017-4.439-.03-.657-.021-.831.191-.819.832.027 1.519-.005 1.52 1.517 1.52.648 0 1.3.046 1.941-.012.708-.064.708.334.719.846.012.547-.066.863-.743.818-.921-.06-1.849 0-2.774-.022-.468-.012-.634.142-.658.632-.1 2.073-.119 2.072 1.986 2.072 1.11 0 2.221.039 3.329-.013.725-.034.588.417.6.834.014.449.059.831-.628.818a202.649 202.649 0 0 0-6.382 0c-.508.006-.616-.195-.609-.654.025-1.452.01-2.902.01-4.35ZM5.462 68.895a5.165 5.165 0 0 1 3.748 1.514c.3.29.437.445-.014.81-.631.51-.994.652-1.717.018a3.337 3.337 0 0 0-4.716.525 3.515 3.515 0 0 0 .08 4.716 3.427 3.427 0 0 0 4.751.367c.618-.553.952-.418 1.493-.016.456.338.526.536.079.954a5.558 5.558 0 0 1-6.519.71 5.143 5.143 0 0 1-2.382-5.8 5.267 5.267 0 0 1 5.197-3.798ZM203.075 71.341a4.162 4.162 0 0 0-4.417 1.537 3.991 3.991 0 0 0 .525 5.282 4.345 4.345 0 0 0 5.668.039c.842-.718.8-.873-.208-1.328-.456-.2-.541.147-.741.317a2.63 2.63 0 0 1-4.093-.679c-.2-.463-.27-.811.463-.764.857.046 1.722.008 2.587.008s1.73-.015 2.587.008c.463.015.656-.1.641-.61a4.234 4.234 0 0 0-3.012-3.81Zm.571 3.143c-.556-.031-1.112-.008-1.668-.008-.525 0-1.05-.023-1.575.008-.7.046-.826-.2-.487-.8a2.16 2.16 0 0 1 2.178-1.1 2.213 2.213 0 0 1 1.961 1.32c.224.464.062.603-.409.58ZM214.665 75.743c1.668.031 3.336 0 5 .015.479.008.718-.062.7-.641a4.094 4.094 0 0 0-8.185.216 3.836 3.836 0 0 0 2.278 3.459 4.141 4.141 0 0 0 4.672-.595c.857-.695.8-.88-.2-1.328-.463-.2-.54.154-.741.324a2.6 2.6 0 0 1-4.038-.625c-.259-.563-.22-.841.514-.825Zm-.456-2.031a2.167 2.167 0 0 1 2.162-1.12 2.23 2.23 0 0 1 1.977 1.3c.224.448.093.6-.394.587-.587-.023-1.174-.008-1.753-.008-.525 0-1.05-.031-1.575.008-.741.052-.679-.304-.414-.767ZM19.726 71.194a4.025 4.025 0 0 0-4.2 3.977 4.206 4.206 0 0 0 8.409-.008 4.016 4.016 0 0 0-4.209-3.969Zm.015 6.61a2.547 2.547 0 0 1-2.594-2.648 2.49 2.49 0 0 1 2.625-2.51 2.44 2.44 0 0 1 2.525 2.587 2.487 2.487 0 0 1-2.555 2.571ZM99.138 72.289a3.737 3.737 0 0 1 2.044-1.085 2.925 2.925 0 0 1 3.286 2.662c.127 1.564.047 3.144.07 4.717.009.638-.459.438-.785.459-.368.025-.746.079-.732-.52a75.22 75.22 0 0 0 0-3.8 1.95 1.95 0 1 0-3.9-.031c-.027 1.234-.045 2.471.009 3.7.029.667-.313.666-.791.658-.463-.009-.827.022-.815-.652.039-2.067.014-4.135.014-6.2 0-.417-.13-.9.6-.83.532.058 1.254-.209 1 .922ZM246.834 72.49c1.274-1.26 2.435-1.655 3.77-.991a3.286 3.286 0 0 1 1.761 3.3 153.74 153.74 0 0 0 0 3.327c.011.562.037.951-.779.962-.865.012-.843-.4-.829-1.007.026-1.14.018-2.28.005-3.42-.013-1.236-.538-1.822-1.66-1.889-1.28-.076-2.022.422-2.129 1.627a36.827 36.827 0 0 0-.076 3.875c.011.6-.151.808-.771.8-.571-.011-.808-.118-.793-.764.045-1.971 0-3.943.033-5.915.007-.36-.357-1 .492-1.012.596-.013 1.251-.151.976 1.107ZM31.85 72.469c1.039-1.007 1.986-1.493 3.13-1.219a2.854 2.854 0 0 1 2.258 2.307 26.625 26.625 0 0 1 .141 5.073c.008.68-.583.353-.918.408-.352.058-.662.036-.65-.493a111.3 111.3 0 0 0 .006-3.7c-.012-1.413-.563-2.049-1.779-2.086a1.823 1.823 0 0 0-2.107 2 45.643 45.643 0 0 0 0 3.606c.025.623-.25.7-.768.7-.491-.008-.8-.032-.782-.678.042-2.065.017-4.131.014-6.2 0-.437-.082-.859.625-.824.586.028 1.088-.003.83 1.106ZM149.022 72.187c.378-.012.486-.276.676-.414a2.912 2.912 0 0 1 4.62 1.774 29.17 29.17 0 0 1 .1 5.077c0 .676-.58.354-.917.417-.431.08-.595-.113-.585-.562.025-1.2.017-2.4.006-3.607-.014-1.447-.593-2.1-1.854-2.116-1.348-.019-2.035.684-2.057 2.148a69.773 69.773 0 0 0 .008 3.514c.021.584-.254.654-.723.637-.447-.016-.836.052-.822-.636.039-2.034 0-4.069.027-6.1 0-.351-.292-.937.483-.938.581-.004 1.254-.173 1.038.806ZM185.862 72.327a11.759 11.759 0 0 1 1.143-.8 2.87 2.87 0 0 1 4.218 2.229c.161 1.587.07 3.2.092 4.8.01.693-.517.445-.865.483s-.663.031-.651-.5c.029-1.232.019-2.465.006-3.7-.015-1.44-.6-2.082-1.873-2.091-1.3-.01-1.985.674-2.021 2.088a56.516 56.516 0 0 0 .006 3.42c.021.585-.125.82-.758.8-.57-.015-.809-.12-.794-.766.044-2.033.017-4.068.015-6.1 0-.428-.1-.88.61-.833.549.046 1.119-.055.872.97ZM56.534 73.966c0-.555.022-1.111-.005-1.665-.029-.576-.02-.955.788-.955.84 0 .766.443.769.985.008 1.232-.026 2.469.085 3.692a1.838 1.838 0 0 0 2.492 1.586 1.752 1.752 0 0 0 1.293-1.724c.028-1.263.066-2.529.013-3.79-.029-.681.282-.712.815-.734.605-.025.8.155.771.768-.047 1.2 0 2.4-.017 3.606a3.486 3.486 0 0 1-6.969.171c-.035-.645-.005-1.293-.005-1.94ZM46.966 71.189a4.428 4.428 0 0 1 2.378.651c.251.148.748.241.324.708-.255.283-.377.865-.973.427a2.628 2.628 0 0 0-2.009-.5c-.525.081-1.046.239-1.115.9-.074.722.452.857.984.968.692.145 1.4.244 2.077.429.767.209 1.456.568 1.6 1.464a2.291 2.291 0 0 1-.952 2.351 4.715 4.715 0 0 1-5.265-.392c-.256-.245-.258-.422 0-.57.31-.179.364-.924.961-.484a4.35 4.35 0 0 0 1.557.77 2.177 2.177 0 0 0 1.005.046c.592-.133 1.185-.337 1.187-1.071 0-.677-.589-.79-1.1-.918-.714-.178-1.442-.307-2.149-.512a1.781 1.781 0 0 1-1.48-1.676 2.252 2.252 0 0 1 1.143-2.08 3.145 3.145 0 0 1 1.827-.511ZM79.694 74.941v-1.295c0-.432.1-.849-.608-.847-.515 0-.292-.513-.317-.811-.022-.251-.1-.633.343-.6.633.052.6-.339.583-.758a5.954 5.954 0 0 1 .006-.923c.09-.756.793-.615 1.229-.687.465-.077.258.439.286.7a5.518 5.518 0 0 1 0 1.016c-.036.467.124.714.621.638.594-.091.8.125.787.747-.008.581-.19.791-.746.7s-.686.192-.665.691c.031.738.014 1.479.007 2.218a1.853 1.853 0 0 0 1.115 2.022c.457.177.426.417.167.754-.222.29-.245.768-.862.465a2.911 2.911 0 0 1-1.955-2.929c.027-.36.009-.731.009-1.101ZM70.593 73.102c0-1.138.036-2.278-.013-3.414-.032-.714.412-.578.832-.609.486-.036.715.073.705.639-.033 2 .012 4-.023 6a1.852 1.852 0 0 0 1.08 2.03c.615.257.256.6.108.953-.192.456-.434.449-.849.246a2.862 2.862 0 0 1-1.852-2.983c.066-.951.011-1.908.012-2.862ZM228.416 72.226c.527-.557.885-1.012 1.492-1.022.33-.006.894-.09.821.365-.068.419-.016 1.111-.724 1.212-1.37.2-1.5.338-1.5 1.737 0 1.262-.039 2.526.016 3.786.028.646-.222.752-.793.762-.616.012-.78-.2-.77-.8.036-1.969 0-3.94.029-5.909 0-.33-.3-.895.345-.96.488-.043 1.203-.319 1.084.829ZM238.323 75.137c0 1.107-.032 2.215.013 3.32.026.632-.337.6-.758.593s-.781.063-.772-.581a234.38 234.38 0 0 0 0-6.549c-.008-.674.428-.526.8-.539s.739-.065.72.528c-.027 1.075-.003 2.152-.003 3.228ZM90.51 75.323c0 1.046-.027 2.094.01 3.14.022.631-.358.588-.776.591s-.768.049-.758-.588q.052-3.278 0-6.556c-.008-.595.33-.551.707-.53s.838-.15.822.527c-.023 1.139-.006 2.278-.005 3.416ZM177.318 75.205c0 1.046-.033 2.092.012 3.135.026.576-.158.754-.726.722-.476-.027-.808-.017-.8-.67q.056-3.18 0-6.363c-.012-.651.316-.643.793-.667.552-.028.759.118.73.709-.046 1.044-.009 2.091-.009 3.134ZM238.469 69.771c-.146.483-.387.841-.958.8a.837.837 0 1 1 .073-1.672c.564.01.787.383.885.872ZM177.417 69.753a.831.831 0 0 1-.892.839.842.842 0 0 1 .076-1.682c.521-.001.762.333.816.843ZM90.634 69.77a.818.818 0 0 1-.907.817.775.775 0 0 1-.784-.846.751.751 0 0 1 .795-.828.827.827 0 0 1 .896.857Z" fill="#fff"/></g></svg>